<svg width="30" height="30" viewBox="0 0 30 30" fill="none" xmlns="http://www.w3.org/2000/svg">
<g id="Group 19">
<rect id="Rectangle 94" width="30" height="30" fill="#FF4401"/>
<g id="layer1">
<path id="path67496" fill-rule="evenodd" clip-rule="evenodd" d="M6.94554 16.5971H10.0688L10.0805 26L14.0609 26V13.8348L10.1634 13.8337C9.90854 13.0829 10.0919 12.0446 10.3662 11.3876C10.6584 10.6875 11.1468 10.1629 11.6319 9.80184C13.5119 8.40256 16.3371 9.06724 17.3551 11.1375C17.706 11.8512 17.8871 12.604 17.7492 13.5101C17.5184 15.0268 16.5874 16.0081 15.2894 16.5452C15.1859 16.588 15.2155 16.5503 15.1667 16.6379C15.1667 17.8528 15.1667 19.0678 15.1667 20.2827C15.1667 20.8149 15.1142 20.6835 15.4003 20.9694C15.9786 21.5474 20.3064 25.9172 20.4482 25.9914L23.2292 23.1999C23.1764 23.0557 22.8578 22.7876 22.732 22.6616C22.5487 22.4781 22.3863 22.3161 22.2029 22.1326C21.7453 21.6746 19.1041 19.0674 19.0561 18.96C19.1896 18.8235 19.6106 18.4644 19.7613 18.2846C20.4692 17.4399 20.9338 16.7987 21.3605 15.6506C21.9036 14.1894 21.9944 12.3499 21.5494 10.7923C20.2357 6.1939 15.312 3.84023 10.9826 5.56661C9.54862 6.13839 8.50525 7.02814 7.74079 7.96803C6.3168 9.71883 5.6717 12.1411 6.16324 14.5379C6.26282 15.0234 6.58662 16.0578 6.84871 16.4983C6.93033 16.6354 6.84378 16.5451 6.94554 16.5968V16.5971Z" fill="white"/>
</g>
</g>
</svg>
